<svg id="Layer_1" data-name="Layer 1" xmlns="http://www.w3.org/2000/svg" xmlns:xlink="http://www.w3.org/1999/xlink" viewBox="0 0 100 100"><defs><style>.cls-1{fill:#fff;}.cls-2{fill:url(#radial-gradient);}.cls-3{fill:url(#linear-gradient);}.cls-4{fill:url(#linear-gradient-2);}</style><radialGradient id="radial-gradient" cx="50" cy="49.54" r="55.68" gradientTransform="translate(11.64 11.64) scale(0.77 0.77)" gradientUnits="userSpaceOnUse"><stop offset="0.11" stop-color="#400"/><stop offset="0.53" stop-color="#db0000"/><stop offset="0.97" stop-color="#400"/></radialGradient><linearGradient id="linear-gradient" x1="49.84" y1="42.58" x2="49.84" y2="91.04" gradientTransform="matrix(1, 0, 0, 1, 0, 0)" xlink:href="#radial-gradient"/><linearGradient id="linear-gradient-2" x1="6.63" y1="36.6" x2="93.37" y2="36.6" gradientTransform="matrix(1, 0, 0, 1, 0, 0)" xlink:href="#radial-gradient"/></defs><rect class="cls-1" width="100" height="100"/><path class="cls-2" d="M45.49,79.05A4.54,4.54,0,0,0,50,83.58h0a4.52,4.52,0,0,0,4.53-4.53c0-2.45-4.25-7.59-4.43-7.81l-.1-.13-.11.13C49.74,71.46,45.49,76.6,45.49,79.05Z"/><path class="cls-3" d="M53.64,50,50,53.62l-3.67-3.7c-.66-.65-1.18-1.18-1.36-1.37L42.25,51.3l1.36,1.37,3.65,3.67L43,60.54a68.76,68.76,0,0,0-6.11,6.2A16.51,16.51,0,0,0,61.22,89l.22-.2.18-.19a16.76,16.76,0,0,0-.14-23.3c-2.87-3-5.8-5.93-8.72-8.87l3.6-3.58,1.71-1.7-2.75-2.76C55.13,48.54,54.46,49.22,53.64,50ZM58,67.25a14.52,14.52,0,0,1,4.2,7,12.64,12.64,0,1,1-23.78-2.7,14.58,14.58,0,0,1,2.45-3.51l.06,0L41,68a1.63,1.63,0,0,0,.17-.2C42.4,66.44,43.78,65.22,45,64l5-4.88Z"/><path class="cls-2" d="M21.46,45.61a4.54,4.54,0,0,0,0,9.07c2.45,0,7.59-4.25,7.81-4.43l.13-.11-.13-.1C29.05,49.86,23.91,45.61,21.46,45.61Z"/><path class="cls-2" d="M70.84,50l-.13.1.13.11c.21.18,5.35,4.43,7.8,4.43a4.54,4.54,0,1,0,0-9.07C76.19,45.61,71.05,49.86,70.84,50Z"/><path class="cls-2" d="M54.57,21.87A4.55,4.55,0,0,0,50,17.33h0a4.54,4.54,0,0,0-4.53,4.54c0,2.45,4.25,7.59,4.43,7.81l.1.12.11-.12C50.32,29.46,54.57,24.32,54.57,21.87Z"/><path class="cls-4" d="M68.84,35.9c-2.7,1.53-4.83,4-7,6.13l-4.39,4.34,2.75,2.75c.94-.92,2.88-2.85,3.82-3.78,1.26-1.23,2.52-2.62,3.88-3.86a1.23,1.23,0,0,0,.28-.23l.1-.09,0-.06a14.21,14.21,0,0,1,3.56-2.38,12.64,12.64,0,1,1,2.48,23.9,14.4,14.4,0,0,1-7.26-4.42l-7.92-8.1-5.88-6-.47-.47,9-8.88a16.52,16.52,0,1,0-28-13.56c-.64,5.76,1.86,10.56,5.79,14.55l7.7,7.84c-1.2,1.18-3.63,3.55-3.64,3.54l-6,6-4.3,4.23A17.22,17.22,0,0,1,27.9,61.4,12.65,12.65,0,0,1,14.22,40.69c5.28-5.21,13.33-4.43,18.32.63,2.14,2.17,5.29,5.37,7.42,7.56l2.75-2.76c-2.2-2.26-5.42-5.54-7.64-7.78a16.72,16.72,0,0,0-22.25-1.58A16.68,16.68,0,0,0,10.5,60.42c6.16,7.31,17.32,7.55,24.14,1.09,2-1.86,3.88-3.75,5.79-5.65h0l9.38-9.38.18-.17L53.64,50l0,0s2.44,2.49,2.7,2.76l0,0h0l.11.12,0,0L59,55.48q3,3.15,6.13,6.25a16.76,16.76,0,0,0,23.31.49,1.12,1.12,0,0,0,.2-.18l.2-.21c7.65-8.11,5.51-21.9-5-26.59A16.7,16.7,0,0,0,68.84,35.9ZM38.69,28.14A12.64,12.64,0,1,1,59.08,32c-3,3-6,5.91-9,8.85L45.32,36C43,33.63,40.08,31.25,38.69,28.14Z"/></svg>